<?xml version="1.0" encoding="UTF-8"?>
<svg xmlns="http://www.w3.org/2000/svg" xmlns:xlink="http://www.w3.org/1999/xlink" width="1564.42pt" height="841.89pt" viewBox="0 0 1564.42 841.89" version="1.1">
<g id="surface1">
<path style=" stroke:none;fill-rule:nonzero;fill:rgb(0%,60.398865%,85.099792%);fill-opacity:1;" d="M 1564.421875 841.890625 L 0 841.890625 L 0 0 L 1564.421875 0 L 1564.421875 841.890625 "/>
<path style=" stroke:none;fill-rule:nonzero;fill:rgb(100%,100%,100%);fill-opacity:1;" d="M 295.613281 298.320313 C 276.503906 320.039063 266.589844 345.121094 262.839844 373.484375 C 320.347656 373.484375 377.242188 373.484375 434.5625 373.484375 C 434.5625 369.285156 434.789063 365.023438 434.523438 360.789063 C 433.359375 342.269531 429.378906 324.492188 419.265625 308.628906 C 405.710938 287.371094 385.367188 276.792969 361.15625 272.890625 C 326.023438 267.230469 292.125 273.226563 259.1875 285.226563 C 211.003906 302.78125 170.539063 331.472656 138.339844 371.519531 C 132.929688 378.253906 128.113281 385.464844 122.179688 393.613281 C 122.671875 389.5625 122.953125 386.640625 123.386719 383.738281 C 130.324219 337.355469 147.027344 295.039063 177.09375 258.707031 C 212.429688 216.007813 257.964844 190.710938 312.585938 181.898438 C 365.789063 173.3125 416.109375 181.941406 462.820313 208.996094 C 505.816406 233.898438 535.453125 270.390625 553.144531 316.636719 C 563.347656 343.304688 568.328125 371.027344 568.589844 399.589844 C 568.753906 417.578125 568.917969 435.566406 569.078125 453.558594 C 569.09375 455.355469 569.078125 457.152344 569.078125 459.644531 C 467.425781 459.644531 366.226563 459.644531 264.6875 459.644531 C 264.800781 484.609375 272.070313 506.117188 288.832031 523.988281 C 308.308594 544.746094 333.300781 554.828125 360.683594 558.820313 C 418.164063 567.199219 472.304688 556.703125 522.804688 527.855469 C 524.097656 527.117188 525.386719 526.367188 526.6875 525.640625 C 526.8125 525.570313 527.003906 525.609375 527.777344 525.550781 C 527.882813 527.289063 528.082031 529.03125 528.082031 530.773438 C 528.09375 561.4375 528.023438 592.101563 528.160156 622.765625 C 528.175781 626.28125 527.039063 628.109375 523.929688 629.65625 C 487.71875 647.707031 449.390625 658.011719 409.117188 661.132813 C 383.457031 663.121094 357.875 663.136719 332.46875 657.984375 C 256.03125 642.488281 195.0625 586.523438 181.074219 507.796875 C 165.109375 417.960938 207.867188 335.015625 293.765625 298.335938 C 294.03125 298.222656 294.390625 298.320313 295.613281 298.320313 "/>
<path style=" stroke:none;fill-rule:nonzero;fill:rgb(100%,100%,100%);fill-opacity:1;" d="M 747.941406 495.703125 L 737.976563 495.703125 L 737.976563 438.289063 C 737.976563 433.753906 738.253906 428.203125 738.8125 421.636719 L 738.574219 421.636719 C 737.617188 425.496094 736.761719 428.261719 736.007813 429.933594 L 706.761719 495.703125 L 701.867188 495.703125 L 672.679688 430.410156 C 671.847656 428.5 670.988281 425.574219 670.113281 421.636719 L 669.878906 421.636719 C 670.195313 425.058594 670.355469 430.648438 670.355469 438.40625 L 670.355469 495.703125 L 660.683594 495.703125 L 660.683594 410.117188 L 673.933594 410.117188 L 700.195313 469.800781 C 702.226563 474.378906 703.539063 477.800781 704.136719 480.066406 L 704.492188 480.066406 C 706.203125 475.371094 707.578125 471.871094 708.613281 469.5625 L 735.410156 410.117188 L 747.941406 410.117188 L 747.941406 495.703125 "/>
<path style=" stroke:none;fill-rule:nonzero;fill:rgb(100%,100%,100%);fill-opacity:1;" d="M 778.917969 495.703125 L 769.132813 495.703125 L 769.132813 434.589844 L 778.917969 434.589844 Z M 774.144531 419.070313 C 772.394531 419.070313 770.902344 418.472656 769.667969 417.28125 C 768.433594 416.085938 767.816406 414.574219 767.816406 412.742188 C 767.816406 410.914063 768.433594 409.394531 769.667969 408.179688 C 770.902344 406.964844 772.394531 406.359375 774.144531 406.359375 C 775.933594 406.359375 777.457031 406.964844 778.710938 408.179688 C 779.964844 409.394531 780.589844 410.914063 780.589844 412.742188 C 780.589844 414.496094 779.964844 415.988281 778.710938 417.222656 C 777.457031 418.453125 775.933594 419.070313 774.144531 419.070313 "/>
<path style=" stroke:none;fill-rule:nonzero;fill:rgb(100%,100%,100%);fill-opacity:1;" d="M 840.394531 492.898438 C 835.699219 495.726563 830.128906 497.136719 823.683594 497.136719 C 814.96875 497.136719 807.933594 494.304688 802.585938 488.632813 C 797.230469 482.964844 794.554688 475.613281 794.554688 466.578125 C 794.554688 456.511719 797.441406 448.425781 803.210938 442.316406 C 808.980469 436.210938 816.679688 433.15625 826.308594 433.15625 C 831.679688 433.15625 836.414063 434.152344 840.511719 436.140625 L 840.511719 446.167969 C 835.976563 442.984375 831.121094 441.394531 825.949219 441.394531 C 819.703125 441.394531 814.582031 443.632813 810.582031 448.105469 C 806.582031 452.582031 804.585938 458.460938 804.585938 465.742188 C 804.585938 472.90625 806.464844 478.554688 810.222656 482.695313 C 813.984375 486.832031 819.027344 488.902344 825.351563 488.902344 C 830.683594 488.902344 835.699219 487.132813 840.394531 483.589844 L 840.394531 492.898438 "/>
<path style=" stroke:none;fill-rule:nonzero;fill:rgb(100%,100%,100%);fill-opacity:1;" d="M 887.066406 444.496094 C 885.355469 443.183594 882.890625 442.527344 879.667969 442.527344 C 875.488281 442.527344 871.996094 444.496094 869.191406 448.4375 C 866.386719 452.375 864.984375 457.746094 864.984375 464.550781 L 864.984375 495.703125 L 855.195313 495.703125 L 855.195313 434.589844 L 864.984375 434.589844 L 864.984375 447.183594 L 865.222656 447.183594 C 866.617188 442.886719 868.746094 439.53125 871.609375 437.125 C 874.472656 434.71875 877.675781 433.515625 881.21875 433.515625 C 883.765625 433.515625 885.714844 433.792969 887.066406 434.351563 L 887.066406 444.496094 "/>
<path style=" stroke:none;fill-rule:nonzero;fill:rgb(100%,100%,100%);fill-opacity:1;" d="M 922.34375 441.394531 C 916.054688 441.394531 911.082031 443.53125 907.421875 447.808594 C 903.757813 452.085938 901.929688 457.984375 901.929688 465.503906 C 901.929688 472.746094 903.777344 478.457031 907.480469 482.632813 C 911.179688 486.8125 916.136719 488.902344 922.34375 488.902344 C 928.667969 488.902344 933.53125 486.851563 936.933594 482.753906 C 940.335938 478.65625 942.035156 472.824219 942.035156 465.265625 C 942.035156 457.628906 940.335938 451.738281 936.933594 447.601563 C 933.53125 443.460938 928.667969 441.394531 922.34375 441.394531 Z M 921.625 497.136719 C 912.59375 497.136719 905.382813 494.28125 899.988281 488.574219 C 894.597656 482.863281 891.902344 475.292969 891.902344 465.863281 C 891.902344 455.597656 894.707031 447.578125 900.316406 441.8125 C 905.929688 436.039063 913.507813 433.15625 923.058594 433.15625 C 932.167969 433.15625 939.28125 435.960938 944.394531 441.570313 C 949.507813 447.183594 952.0625 454.960938 952.0625 464.90625 C 952.0625 474.65625 949.308594 482.464844 943.796875 488.335938 C 938.285156 494.203125 930.894531 497.136719 921.625 497.136719 "/>
<path style=" stroke:none;fill-rule:nonzero;fill:rgb(100%,100%,100%);fill-opacity:1;" d="M 964 493.496094 L 964 482.992188 C 969.332031 486.933594 975.199219 488.902344 981.605469 488.902344 C 990.199219 488.902344 994.5 486.035156 994.5 480.308594 C 994.5 478.675781 994.132813 477.292969 993.394531 476.15625 C 992.65625 475.023438 991.664063 474.019531 990.410156 473.144531 C 989.15625 472.269531 987.683594 471.484375 985.992188 470.785156 C 984.300781 470.089844 982.480469 469.363281 980.53125 468.609375 C 977.824219 467.535156 975.449219 466.449219 973.398438 465.355469 C 971.351563 464.261719 969.640625 463.027344 968.265625 461.65625 C 966.894531 460.28125 965.859375 458.722656 965.164063 456.96875 C 964.46875 455.21875 964.117188 453.171875 964.117188 450.820313 C 964.117188 447.957031 964.777344 445.421875 966.089844 443.214844 C 967.402344 441.003906 969.152344 439.152344 971.339844 437.660156 C 973.527344 436.171875 976.027344 435.046875 978.832031 434.289063 C 981.636719 433.535156 984.53125 433.15625 987.515625 433.15625 C 992.804688 433.15625 997.542969 434.070313 1001.71875 435.902344 L 1001.71875 445.808594 C 997.222656 442.863281 992.050781 441.394531 986.203125 441.394531 C 984.371094 441.394531 982.722656 441.601563 981.25 442.019531 C 979.777344 442.4375 978.511719 443.023438 977.460938 443.78125 C 976.402344 444.535156 975.589844 445.441406 975.011719 446.496094 C 974.433594 447.550781 974.144531 448.714844 974.144531 449.988281 C 974.144531 451.578125 974.433594 452.910156 975.011719 453.984375 C 975.589844 455.0625 976.433594 456.015625 977.550781 456.851563 C 978.660156 457.6875 980.015625 458.441406 981.605469 459.117188 C 983.199219 459.796875 985.007813 460.53125 987.039063 461.328125 C 989.742188 462.363281 992.171875 463.425781 994.320313 464.519531 C 996.46875 465.613281 998.296875 466.847656 999.808594 468.222656 C 1001.320313 469.59375 1002.488281 471.175781 1003.300781 472.964844 C 1004.121094 474.757813 1004.53125 476.886719 1004.53125 479.351563 C 1004.53125 482.375 1003.859375 485.003906 1002.53125 487.230469 C 1001.191406 489.460938 999.410156 491.308594 997.183594 492.78125 C 994.957031 494.253906 992.390625 495.347656 989.484375 496.0625 C 986.578125 496.777344 983.535156 497.136719 980.351563 497.136719 C 974.066406 497.136719 968.613281 495.921875 964 493.496094 "/>
<path style=" stroke:none;fill-rule:nonzero;fill:rgb(100%,100%,100%);fill-opacity:1;" d="M 1045.828125 441.394531 C 1039.539063 441.394531 1034.570313 443.53125 1030.910156 447.808594 C 1027.238281 452.085938 1025.421875 457.984375 1025.421875 465.503906 C 1025.421875 472.746094 1027.269531 478.457031 1030.96875 482.632813 C 1034.671875 486.8125 1039.621094 488.902344 1045.828125 488.902344 C 1052.148438 488.902344 1057.019531 486.851563 1060.421875 482.753906 C 1063.820313 478.65625 1065.519531 472.824219 1065.519531 465.265625 C 1065.519531 457.628906 1063.820313 451.738281 1060.421875 447.601563 C 1057.019531 443.460938 1052.148438 441.394531 1045.828125 441.394531 Z M 1045.109375 497.136719 C 1036.078125 497.136719 1028.871094 494.28125 1023.480469 488.574219 C 1018.078125 482.863281 1015.390625 475.292969 1015.390625 465.863281 C 1015.390625 455.597656 1018.191406 447.578125 1023.800781 441.8125 C 1029.410156 436.039063 1036.988281 433.15625 1046.539063 433.15625 C 1055.660156 433.15625 1062.769531 435.960938 1067.878906 441.570313 C 1072.988281 447.183594 1075.550781 454.960938 1075.550781 464.90625 C 1075.550781 474.65625 1072.789063 482.464844 1067.28125 488.335938 C 1061.769531 494.203125 1054.378906 497.136719 1045.109375 497.136719 "/>
<path style=" stroke:none;fill-rule:nonzero;fill:rgb(100%,100%,100%);fill-opacity:1;" d="M 1119.179688 413.816406 C 1117.269531 412.742188 1115.101563 412.207031 1112.671875 412.207031 C 1105.828125 412.207031 1102.410156 416.523438 1102.410156 425.15625 L 1102.410156 434.589844 L 1116.730469 434.589844 L 1116.730469 442.945313 L 1102.410156 442.945313 L 1102.410156 495.703125 L 1092.679688 495.703125 L 1092.679688 442.945313 L 1082.238281 442.945313 L 1082.238281 434.589844 L 1092.679688 434.589844 L 1092.679688 424.679688 C 1092.679688 418.273438 1094.53125 413.210938 1098.230469 409.492188 C 1101.929688 405.769531 1106.550781 403.910156 1112.078125 403.910156 C 1115.058594 403.910156 1117.429688 404.269531 1119.179688 404.984375 L 1119.179688 413.816406 "/>
<path style=" stroke:none;fill-rule:nonzero;fill:rgb(100%,100%,100%);fill-opacity:1;" d="M 1157.800781 495.109375 C 1155.488281 496.382813 1152.441406 497.019531 1148.660156 497.019531 C 1137.960938 497.019531 1132.609375 491.050781 1132.609375 479.113281 L 1132.609375 442.945313 L 1122.101563 442.945313 L 1122.101563 434.589844 L 1132.609375 434.589844 L 1132.609375 419.667969 L 1142.398438 416.503906 L 1142.398438 434.589844 L 1157.800781 434.589844 L 1157.800781 442.945313 L 1142.398438 442.945313 L 1142.398438 477.382813 C 1142.398438 481.480469 1143.089844 484.40625 1144.488281 486.15625 C 1145.878906 487.90625 1148.191406 488.78125 1151.410156 488.78125 C 1153.878906 488.78125 1156 488.105469 1157.800781 486.753906 L 1157.800781 495.109375 "/>
<path style=" stroke:none;fill-rule:nonzero;fill:rgb(100%,100%,100%);fill-opacity:1;" d="M 1251.019531 495.703125 L 1205.660156 495.703125 L 1205.660156 410.117188 L 1249.109375 410.117188 L 1249.109375 419.1875 L 1215.691406 419.1875 L 1215.691406 447.660156 L 1246.609375 447.660156 L 1246.609375 456.671875 L 1215.691406 456.671875 L 1215.691406 486.632813 L 1251.019531 486.632813 L 1251.019531 495.703125 "/>
<path style=" stroke:none;fill-rule:nonzero;fill:rgb(100%,100%,100%);fill-opacity:1;" d="M 1308.558594 468.070313 L 1308.558594 459.058594 C 1308.558594 454.125 1306.929688 449.949219 1303.660156 446.523438 C 1300.398438 443.105469 1296.261719 441.394531 1291.25 441.394531 C 1285.28125 441.394531 1280.589844 443.582031 1277.160156 447.957031 C 1273.738281 452.335938 1272.03125 458.382813 1272.03125 466.101563 C 1272.03125 473.144531 1273.671875 478.703125 1276.949219 482.78125 C 1280.238281 486.863281 1284.640625 488.902344 1290.171875 488.902344 C 1295.628906 488.902344 1300.050781 486.933594 1303.449219 482.992188 C 1306.859375 479.054688 1308.558594 474.078125 1308.558594 468.070313 Z M 1318.351563 495.703125 L 1308.558594 495.703125 L 1308.558594 485.320313 L 1308.320313 485.320313 C 1303.78125 493.199219 1296.78125 497.136719 1287.308594 497.136719 C 1279.628906 497.136719 1273.488281 494.402344 1268.898438 488.929688 C 1264.300781 483.460938 1262 476.011719 1262 466.578125 C 1262 456.472656 1264.550781 448.375 1269.640625 442.289063 C 1274.738281 436.199219 1281.519531 433.15625 1290 433.15625 C 1298.390625 433.15625 1304.5 436.460938 1308.320313 443.0625 L 1308.558594 443.0625 L 1308.558594 405.222656 L 1318.351563 405.222656 L 1318.351563 495.703125 "/>
<path style=" stroke:none;fill-rule:nonzero;fill:rgb(100%,100%,100%);fill-opacity:1;" d="M 1380.539063 468.070313 L 1380.539063 459.058594 C 1380.539063 454.203125 1378.890625 450.046875 1375.609375 446.585938 C 1372.328125 443.121094 1368.238281 441.394531 1363.351563 441.394531 C 1357.300781 441.394531 1352.558594 443.59375 1349.140625 447.988281 C 1345.71875 452.386719 1344.011719 458.542969 1344.011719 466.460938 C 1344.011719 473.265625 1345.648438 478.703125 1348.929688 482.78125 C 1352.21875 486.863281 1356.558594 488.902344 1361.96875 488.902344 C 1367.46875 488.902344 1371.929688 486.953125 1375.371094 483.050781 C 1378.808594 479.152344 1380.539063 474.160156 1380.539063 468.070313 Z M 1390.320313 490.8125 C 1390.320313 513.253906 1379.578125 524.472656 1358.089844 524.472656 C 1350.53125 524.472656 1343.929688 523.039063 1338.28125 520.175781 L 1338.28125 510.386719 C 1345.160156 514.207031 1351.730469 516.117188 1357.980469 516.117188 C 1373.019531 516.117188 1380.539063 508.117188 1380.539063 492.125 L 1380.539063 485.4375 L 1380.300781 485.4375 C 1375.640625 493.238281 1368.640625 497.136719 1359.289063 497.136719 C 1351.691406 497.136719 1345.570313 494.421875 1340.941406 488.988281 C 1336.300781 483.558594 1333.980469 476.269531 1333.980469 467.117188 C 1333.980469 456.730469 1336.480469 448.476563 1341.46875 442.347656 C 1346.46875 436.222656 1353.300781 433.15625 1361.96875 433.15625 C 1370.210938 433.15625 1376.320313 436.460938 1380.300781 443.0625 L 1380.539063 443.0625 L 1380.539063 434.589844 L 1390.320313 434.589844 L 1390.320313 490.8125 "/>
<path style=" stroke:none;fill-rule:nonzero;fill:rgb(100%,100%,100%);fill-opacity:1;" d="M 1449.230469 459.296875 C 1449.191406 453.648438 1447.828125 449.25 1445.140625 446.105469 C 1442.460938 442.964844 1438.730469 441.394531 1433.949219 441.394531 C 1429.339844 441.394531 1425.421875 443.042969 1422.199219 446.347656 C 1418.96875 449.648438 1416.980469 453.964844 1416.230469 459.296875 Z M 1459.261719 467.59375 L 1416.109375 467.59375 C 1416.269531 474.398438 1418.101563 479.648438 1421.601563 483.351563 C 1425.101563 487.050781 1429.910156 488.902344 1436.039063 488.902344 C 1442.929688 488.902344 1449.25 486.632813 1455.019531 482.097656 L 1455.019531 491.289063 C 1449.648438 495.1875 1442.550781 497.136719 1433.710938 497.136719 C 1425.078125 497.136719 1418.300781 494.363281 1413.359375 488.8125 C 1408.429688 483.261719 1405.960938 475.453125 1405.960938 465.386719 C 1405.960938 455.875 1408.660156 448.128906 1414.050781 442.140625 C 1419.441406 436.148438 1426.140625 433.15625 1434.128906 433.15625 C 1442.128906 433.15625 1448.320313 435.742188 1452.699219 440.914063 C 1457.070313 446.089844 1459.261719 453.269531 1459.261719 462.460938 L 1459.261719 467.59375 "/>
</g>
</svg>
